<svg preserveAspectRatio="none" width="100%" height="100%" overflow="visible" style="display: block;" viewBox="0 0 40 40" fill="none" xmlns="http://www.w3.org/2000/svg">
<g id="Utility Icons / R / refresh">
<path id="Icon" fill-rule="evenodd" clip-rule="evenodd" d="M35.4732 2.8049L33.1713 2.84508C32.5575 2.85579 32.0297 3.40353 32.0405 4.0188L32.1345 9.40242C32.1465 10.0946 31.7683 10.4089 31.2231 9.95685C30.9875 9.65324 30.7533 9.42653 30.4423 9.20116C26.5387 5.42268 21.1393 3.90135 15.6335 5.07451C13.7219 5.49254 11.8938 6.29377 10.3012 7.39862C5.67433 10.5567 3.076 15.6026 3.09324 20.9876C3.089 25.142 4.77285 29.267 7.74098 32.2155C10.8666 35.3921 15.041 37.0887 19.4914 37.011C23.4046 36.9427 27.0636 35.494 29.9364 32.9821C30.4655 32.5112 30.452 31.7422 29.9836 31.2887L28.344 29.7018C27.9537 29.3239 27.2618 29.2591 26.8081 29.6517C24.086 32.0071 20.3423 32.9957 16.5664 32.1384C15.5649 31.9251 14.5593 31.481 13.6291 30.9587C9.20848 28.3433 7.04814 23.3035 8.18724 18.206C8.39998 17.2022 8.84291 16.1944 9.36392 15.2621C11.4466 11.456 15.1702 9.31387 19.1602 9.24422C22.2294 9.19065 25.1667 10.3703 27.3528 12.4862C27.7418 12.7872 28.0554 13.1664 28.2923 13.5469C28.5333 14.1581 28.0015 14.4752 27.3109 14.4872L21.9398 14.581C21.3259 14.5917 20.7982 15.1394 20.8089 15.7547L20.8505 18.1389C20.8613 18.7541 21.3297 19.2076 21.9436 19.1968L35.9854 18.9517C36.5225 18.9424 36.9748 18.4729 36.9654 17.9345L36.7211 3.9371C36.6336 3.32317 36.0871 2.79418 35.4732 2.8049V2.8049Z" fill="#04e1cb"/>
</g>
</svg>
